<?xml version="1.0" encoding="UTF-8" standalone="no"?>
<!-- Created with Inkscape (http://www.inkscape.org/) -->

<svg
   width="1280"
   height="980"
   viewBox="0 0 1280 980"
   version="1.1"
   id="svg1"
   xml:space="preserve"
   sodipodi:docname="crusty.svg"
   inkscape:version="1.4.2 (ebf0e940, 2025-05-08)"
   xmlns:inkscape="http://www.inkscape.org/namespaces/inkscape"
   xmlns:sodipodi="http://sodipodi.sourceforge.net/DTD/sodipodi-0.dtd"
   xmlns="http://www.w3.org/2000/svg"
   xmlns:svg="http://www.w3.org/2000/svg"><sodipodi:namedview
     id="namedview1"
     pagecolor="#ffffff"
     bordercolor="#666666"
     borderopacity="1.0"
     inkscape:showpageshadow="2"
     inkscape:pageopacity="0.0"
     inkscape:pagecheckerboard="0"
     inkscape:deskcolor="#d1d1d1"
     inkscape:document-units="mm"
     inkscape:zoom="0.93904566"
     inkscape:cx="626.70009"
     inkscape:cy="575.05191"
     inkscape:window-width="1792"
     inkscape:window-height="1067"
     inkscape:window-x="0"
     inkscape:window-y="25"
     inkscape:window-maximized="1"
     inkscape:current-layer="layer1" /><defs
     id="defs1" /><g
     inkscape:label="Layer 1"
     inkscape:groupmode="layer"
     id="layer1"><g
       id="g10125"
       inkscape:label="crusty"
       transform="matrix(6.3755939,0,0,6.3755939,37.014232,-69.130519)"
       inkscape:export-filename="../Downloads/crusty.svg"
       inkscape:export-xdpi="80.970039"
       inkscape:export-ydpi="80.970039"
       style="stroke-width:0.156848"><path
         style="display:inline;fill:#a5b3c3;fill-opacity:0.3;stroke:none;stroke-width:0.0784238;stroke-linecap:round;stroke-dasharray:none"
         id="path10132"
         sodipodi:type="arc"
         sodipodi:cx="119.28388"
         sodipodi:cy="150.30779"
         sodipodi:rx="64.335991"
         sodipodi:ry="6.8992534"
         sodipodi:start="1.6757224"
         sodipodi:end="1.6755318"
         sodipodi:arc-type="slice"
         d="m 112.54574,157.16909 a 64.335991,6.8992534 0 0 1 -57.244342,-7.58356 64.335991,6.8992534 0 0 1 70.714532,-6.13912 64.335991,6.8992534 0 0 1 57.25108,7.58298 64.335991,6.8992534 0 0 1 -70.70908,6.13984 l 6.72595,-6.86144 z"
         inkscape:label="crusty shadow"
         transform="translate(-8.245879,0.94035)" /><path
         id="path10131"
         style="fill:#ffffff;fill-opacity:0.996078;stroke:none;stroke-width:0.296405;stroke-linecap:round;stroke-dasharray:none"
         d="m 1384.1954,202.89733 c -4.1717,0.0962 -7.2949,4.36719 -6.7862,8.38041 0.1331,3.40565 2.7936,6.78323 6.234,7.25842 2.8403,-0.36606 5.2817,-2.47529 6.7009,-4.88643 2.1885,-4.18265 -0.4734,-10.45375 -5.4649,-10.74065 -0.2274,-0.0168 -0.4559,-0.0191 -0.6838,-0.0117 z m -75.3129,-2.0102 c -4.0905,0.0678 -6.7472,4.38064 -6.4937,8.16289 0.055,3.01011 2.0803,5.86212 4.7426,7.16073 2.8169,0.80271 5.7797,-1.00258 7.4628,-3.18285 2.8823,-3.86014 1.2258,-10.35139 -3.5188,-11.83234 -0.7054,-0.23017 -1.4514,-0.33518 -2.1929,-0.30843 z m -205.083,25.04175 c -4.5253,0.11484 -7.5108,5.41055 -5.9686,9.50016 1.0609,2.71999 4.0445,4.8189 7.0151,3.96296 3.0031,-0.61572 5.376,-3.47298 5.1302,-6.58684 0.1269,-3.3585 -2.6498,-6.94387 -6.1767,-6.87628 z m 84.3758,1.84106 c -3.3385,0.0517 -5.8167,3.31036 -5.7048,6.51325 -0.4692,3.36327 2.7821,6.35628 6.0815,6.00695 3.4307,-0.0208 6.3623,-3.24882 6.4105,-6.58865 -0.8146,-3.02873 -3.43,-6.00603 -6.7872,-5.93155 z m 8.4663,-25.43024 c -14.2718,0.45113 -25.0875,13.22571 -28.0007,26.42589 -2.1202,10.91401 -0.8217,22.93669 5.8091,32.15578 5.3313,8.03368 15.2334,12.7468 24.8394,11.24741 10.3461,-0.2304 18.2061,-8.94194 22.1904,-17.75508 4.3813,-11.34111 4.2982,-24.54648 -0.2929,-35.81803 -4.0443,-9.64085 -13.9673,-16.61846 -24.5453,-16.25597 z m -6.4066,17.82286 c 8.5308,-0.13198 14.3066,8.46888 15.1348,16.21116 1.6665,10.32099 -1.3328,22.40891 -10.6501,28.265 -6.2281,3.6829 -13.9517,-0.33984 -16.8246,-6.39394 -4.8997,-9.56692 -4.9063,-21.90429 0.8776,-31.19546 2.527,-3.85154 6.7232,-6.85703 11.4623,-6.88676 z m -80.2563,-15.29561 c -10.7272,0.18264 -19.935,8.17678 -23.2805,18.10389 -3.361,7.7493 -2.11,16.43502 -1.969,24.62617 1.8503,10.97677 9.142,22.66995 20.9118,24.55799 13.6115,1.85692 26.4764,-8.43535 30.0203,-21.26107 4.3157,-14.39298 1.4994,-32.31997 -11.1429,-41.71572 -3.9948,-3.35631 -9.4505,-4.4044 -14.5397,-4.31126 z m -4.533,15.24737 c 8.3613,-0.13961 13.428,8.39233 14.3364,15.8068 1.3341,9.54673 -0.016,21.72844 -8.7018,27.68832 -5.0919,3.17664 -12.3935,2.63881 -16.1479,-2.37561 -5.8878,-6.36023 -5.5634,-16.11572 -4.6869,-24.06632 1.1204,-7.33379 5.7148,-15.5379 13.5311,-16.94636 0.5531,-0.0739 1.1114,-0.10295 1.6691,-0.10683 z"
         inkscape:label="white"
         transform="matrix(0.26458333,0,0,0.26458333,-217.33026,17.099883)" /><path
         id="path9715"
         style="display:inline;fill:#4f6e83;fill-opacity:0.996078;stroke:none;stroke-width:0.156848;stroke-linecap:round"
         d="m 17.262451,84.55517 c -0.894645,0.779473 -1.25537,1.97135 -1.547915,3.080369 -0.278406,1.039154 -0.24488,2.16549 0.194281,3.156045 0.765468,1.777283 2.196144,3.167613 3.693081,4.346321 2.116996,1.578425 4.576836,2.799906 7.215488,3.150569 1.242806,0.111035 2.585156,-0.05218 3.606334,-0.82668 0.710901,-0.531614 1.523212,-1.141463 1.700176,-2.066896 0.114805,-0.55613 -0.0019,-1.314995 -0.589953,-1.549165 -0.72391,-0.09846 -1.331303,0.423794 -1.968939,0.674561 -0.682881,0.368318 -1.488366,0.433713 -2.230493,0.355507 -1.481053,-0.109958 -2.851933,-0.801923 -4.135708,-1.522515 -1.343723,-0.855983 -2.719845,-1.717308 -3.845351,-2.869018 -0.554759,-0.569116 -0.966237,-1.349584 -0.833404,-2.165334 0.07193,-0.902367 0.618077,-1.757754 0.380208,-2.68537 -0.124405,-0.657145 -0.754237,-1.112573 -1.409695,-1.108945 -0.07719,-0.02114 -0.152264,0.02127 -0.22811,0.03055 z m 6.8702,-22.36339 c -3.472071,0.194374 -5.9922,3.03081 -8.210264,5.395741 -2.090663,2.59585 -4.610102,5.025644 -5.814136,8.195429 -0.8790706,2.79332 0.04382,6.044128 2.434704,7.800771 0.503082,0.620352 1.413938,0.287575 1.497024,-0.483307 0.601181,-1.569527 -0.958066,-2.901674 -1.120172,-4.427275 -0.341404,-2.168321 1.41795,-3.90834 2.5419,-5.553379 2.158992,-2.621632 4.340955,-5.296953 7.011458,-7.415017 1.711334,-1.344978 3.789835,0.02352 5.224617,1.063749 1.870403,1.435008 4.435599,2.913401 4.686675,5.523008 0.197607,1.254961 -0.918244,2.84557 0.199554,3.861255 1.366605,0.677553 2.442663,-1.033113 2.777802,-2.14984 0.851879,-2.178918 -0.06877,-4.577964 -1.706218,-6.113468 -2.39281,-2.468001 -5.210244,-4.898871 -8.654996,-5.643512 -0.287176,-0.04173 -0.577825,-0.05936 -0.867948,-0.05416 z"
         inkscape:label="gray" /><path
         id="path9710"
         style="display:inline;fill:#fb5b34;fill-opacity:1;stroke:none;stroke-width:0.156848;stroke-linecap:round"
         d="m 30.059545,82.634171 c -0.748398,-0.180562 -1.155626,0.611603 -0.692132,1.175438 2.186033,4.574876 5.142521,8.732909 7.835638,13.016245 1.111481,1.959462 2.797141,3.555986 3.793006,5.572666 0.3219,0.59756 0.0097,1.64115 -0.817874,1.17841 -0.781469,-0.39462 -1.52749,-1.06521 -2.47736,-0.69288 -4.985806,0.84182 -9.945759,-0.6328 -14.463938,-2.61756 -0.435072,-0.280206 -1.055962,-0.0319 -0.862384,0.5471 0.799104,6.08622 5.242167,11.41587 11.002162,13.45987 5.158216,1.97318 11.525099,0.89675 15.301471,-3.27706 4.445867,-4.66336 5.264494,-12.114482 2.327552,-17.782907 -2.94455,-6.087946 -9.454673,-9.908648 -16.100665,-10.364655 -1.609524,-0.152479 -3.229229,-0.212347 -4.845476,-0.214667 z m 25.174919,22.290539 c -0.974662,0.18546 -0.427408,1.46524 -0.898351,2.11882 -1.046885,2.62208 -2.978496,4.90674 -4.703902,7.09148 0.13037,0.79485 1.400037,0.67768 1.988042,1.03607 3.608969,1.45087 7.575732,0.957 11.35299,0.74449 0.794978,-0.17465 2.195838,-0.0557 2.392481,-1.06237 -0.872079,-2.55468 -2.077931,-5.14395 -2.674135,-7.79843 -0.482193,-1.51373 -2.736906,-0.86311 -3.892963,-1.3421 -1.106879,-0.21364 -2.725904,-0.87004 -3.564162,-0.78796 z m 14.65423,16.11391 c -2.499262,0.44175 -4.672216,1.96788 -6.754783,3.34272 -0.631089,0.59624 -1.823111,1.07487 -1.840494,2.0482 1.129805,1.40743 2.764258,2.35425 3.943228,3.74034 0.538453,0.3278 1.036166,1.48876 1.737378,1.07863 2.004335,-2.76337 4.200046,-5.50712 7.11309,-7.36532 0.259559,-0.733 -1.01841,-1.04988 -1.429946,-1.54037 -0.840258,-0.55679 -1.690393,-1.34519 -2.768473,-1.3042 z m -10.512551,7.62199 c -1.029375,0.45507 -1.345475,1.79238 -1.895761,2.69064 -1.83193,4.29203 -2.682068,9.35387 -1.060823,13.84525 0.402526,0.7038 0.766424,2.78186 1.648788,2.99768 0.817962,-0.45022 0.249269,-2.62007 0.680204,-3.34635 1.25707,-4.05038 3.359391,-7.86699 6.195438,-11.06336 -0.225412,-1.00078 -1.568688,-1.60981 -2.219637,-2.45699 -1.104982,-0.84202 -1.92758,-2.33655 -3.300611,-2.7438 z m 10.058918,5.20101 c -1.066657,0.27326 -0.901009,1.76234 -1.169503,2.60421 -0.316169,3.16313 -0.243954,6.55239 1.46023,9.35045 0.736346,1.22009 1.380625,2.75524 2.689227,3.44214 0.738516,-0.15615 0.338548,-1.26671 0.60224,-1.79695 0.423251,-3.18598 1.429504,-6.22478 2.447075,-9.25158 -0.274211,-1.17718 -1.579432,-1.79844 -2.430623,-2.54895 -1.100715,-0.7244 -2.256166,-1.63383 -3.598646,-1.79932 z m 7.328223,-8.27295 c -2.280621,1.1089 -4.40281,2.71513 -5.897962,4.77297 -0.403903,0.86069 0.981186,1.16345 1.438047,1.61312 1.790282,0.97877 3.380698,2.30102 5.097524,3.39576 0.89917,-0.38228 1.214657,-1.60735 1.921965,-2.2624 1.142174,-1.48513 2.58478,-2.9104 3.746621,-4.37347 -0.09867,-0.75425 -1.281152,-0.62646 -1.796928,-1.0647 -1.498727,-0.67805 -2.965519,-1.5973 -4.509267,-2.08128 z m 65.331226,4.55673 c -2.59696,1.32499 -5.18192,2.91966 -7.16274,5.05052 1.55736,3.13475 2.85093,6.46954 3.28999,9.98871 0.39908,2.14148 0.25949,4.38048 0.73145,6.49662 0.64544,0.64172 1.32593,-0.54974 1.75667,-0.93174 3.56039,-4.15172 4.02494,-10.05112 3.26073,-15.25288 -0.39721,-1.8224 -0.44028,-4.32827 -1.2172,-5.99792 l -0.63744,0.64545 z m -10.44727,-8.34973 c -1.16696,-0.0263 -2.39818,0.72335 -2.4117,1.99887 -0.14946,1.47815 -1.18294,3.0639 -1.49182,4.50252 0.38181,1.37625 2.76248,1.8103 3.66446,2.80608 0.71425,0.40358 1.05102,1.4268 1.85738,1.60122 2.21335,-1.37847 4.32017,-2.94651 6.62852,-4.18172 0.6062,-0.2367 1.11451,-0.9124 0.60549,-1.50111 -2.04152,-2.56887 -4.93577,-4.78356 -8.26813,-5.21474 -0.19434,-0.0146 -0.38946,-0.0188 -0.5842,-0.0111 z m -16.08299,4.41058 c -7.49264,0.21725 -14.72994,4.52386 -18.339658,11.11863 -1.93957,3.57275 -2.620375,7.78836 -2.204736,11.80446 0.136295,0.91315 1.189099,0.74251 1.734265,0.31101 3.393279,-1.80929 6.929879,-3.529 9.817229,-6.10883 1.11424,-0.85778 1.29678,-2.39226 2.27409,-3.31637 0.89106,-0.41181 1.52312,0.55824 1.37425,1.3672 -0.17522,3.67438 -1.92166,7.05301 -3.61978,10.23585 -0.98585,1.98129 -2.55916,3.5443 -3.76741,5.36569 -0.0597,0.79095 1.17288,0.68619 1.7281,0.85089 4.50064,0.30901 9.2451,-0.34069 13.02917,-2.96557 4.91825,-3.24989 8.37531,-8.74855 8.94734,-14.63596 0.24319,-2.99901 0.18706,-6.18915 -1.43805,-8.83564 -1.84908,-3.45223 -5.67889,-5.35453 -9.53481,-5.19136 z m 3.44063,-11.08117 c -2.36604,0.078 -4.27407,2.25273 -4.72883,4.45732 0.0791,1.2052 -0.84906,3.45376 -0.11152,4.48447 1.22533,0.69961 3.49384,-0.50082 4.77544,-0.0186 2.32478,0.57512 4.71522,1.38465 6.44767,3.12498 0.8662,0.0911 0.79842,-1.24435 1.00592,-1.83122 0.95237,-4.42251 -2.03697,-9.65417 -6.7162,-10.19764 -0.22344,-0.0202 -0.44824,-0.0278 -0.67248,-0.0193 z M 86.571462,81.933507 c -1.220978,0.169952 -1.176139,1.783463 -1.573062,2.67172 -1.206992,4.675626 -6.384017,8.153524 -11.153126,6.748848 -1.32148,-0.225774 -2.322092,-1.283279 -3.603467,-1.544499 -1.313143,0.325085 -1.779333,1.907939 -2.599761,2.841228 -1.931339,2.846543 -3.445137,6.174964 -3.152801,9.693196 0.191227,6.36356 3.527493,12.26356 8.186337,16.46355 6.810968,6.21035 15.819557,9.428 24.781944,10.95172 2.590974,0.40965 4.418304,-1.89581 6.575244,-2.87674 2.41696,-1.34863 5.69541,-2.21366 8.40106,-2.8478 0.45035,-0.94018 -0.6797,-2.56196 -0.56095,-3.6415 -0.22093,-3.77129 2.78933,-7.31603 6.48252,-7.86643 1.83282,-0.0939 3.77487,-0.15594 5.36125,0.9247 2.24069,1.16397 3.68047,4.26404 4.75932,6.48499 2.06788,0.35606 5.0034,-0.0689 7.13317,0.13993 0.92713,-0.31059 -0.005,-2.23903 0.13749,-3.03592 0.0965,-4.77818 0.1533,-9.94876 -2.43545,-14.15941 -1.28012,-0.90959 -2.93832,-1.16081 -4.26407,-2.0356 -1.85108,-0.929771 -3.2606,-2.454747 -4.69879,-3.895006 -1.85422,-1.306203 -4.21013,-1.852076 -5.82192,-3.537442 -2.41514,-1.935658 -3.43659,-4.976334 -3.89241,-7.903147 -0.22322,-1.001998 -1.63873,-0.718859 -2.38808,-1.068453 -1.16211,-0.140089 -2.26631,-0.787874 -3.41765,-0.57726 -0.90367,1.446591 -1.43,3.274753 -2.64564,4.547034 -2.69878,3.374935 -7.78972,4.294946 -11.536334,2.181288 -2.837339,-1.521396 -4.694288,-4.498276 -5.242867,-7.61783 -0.544589,-0.873226 -1.924071,-0.883552 -2.831957,-1.041167 z m 8.24068,14.53367 c 1.589572,0.565883 2.847528,1.88825 3.819711,3.239966 0.426511,0.475507 0.734673,1.849637 -0.27559,1.691757 -0.893125,-0.13801 -1.904032,-0.61427 -2.452048,0.4347 -2.164802,2.35593 -5.021717,4.21697 -8.289731,4.38463 -3.82233,0.34504 -8.005786,-1.17416 -10.136442,-4.47104 -0.451477,-0.61774 -0.522546,-2.013059 0.402818,-2.135371 1.978588,0.907991 3.667442,2.488441 5.894625,2.832331 3.875093,0.86769 8.008435,-0.75184 10.772937,-3.419865 0.07813,-0.802084 -0.293894,-1.80231 0.04599,-2.52558 0.0701,-0.02273 0.143997,-0.03421 0.217728,-0.03153 z"
         inkscape:label="red" /><path
         id="path9624"
         style="display:inline;fill:#d7492b;stroke-width:0.156848"
         d="m 103.62282,157.47274 c 0.37313,-0.19472 3.32302,-0.88649 4.17226,-1.06307 7.87412,-1.6372 13.97211,-9.12193 17.4749,-17.00428 1.22086,-2.74729 2.49682,-3.09102 2.37724,-0.48696 -0.47341,10.30861 -10.76091,19.79733 -21.00643,19.79016 -2.10714,-10e-4 -3.63176,-0.91558 -3.01797,-1.23585 z m -8.69862,-7.03917 c 0,-0.72645 5.13057,-5.57161 8.67511,-7.66814 3.82675,-2.26345 6.74255,-3.45613 5.83148,-1.69433 -0.5455,1.05488 -4.0501,3.58353 -9.18388,6.51035 -4.81715,2.7463 -5.32271,3.29433 -5.32271,2.85212 z m -22.50918,-1.17515 c -0.61132,-1.46311 -0.69533,-14.51303 -0.12434,-14.0974 1.55819,1.13422 2.53263,1.97163 4.13772,2.51697 l -1.77188,2.98045 c -0.8581,1.44339 -1.22972,4.29708 -1.42354,5.44458 -0.39393,2.33224 -0.24818,4.51907 -0.81796,3.1554 z M 59.87916,141.3009 c -0.17052,-0.41144 -0.0714,-2.46436 0.27131,-3.48301 0.30182,-1.64369 1.0956,-3.16975 1.48445,-4.77893 0.14383,-0.84039 0.0543,-1.70903 -0.0115,-2.55781 -0.14289,-0.51151 0.83752,0.17658 1.81417,1.74575 l 1.50636,1.55757 -1.35478,1.64601 c -0.94901,1.15301 -1.60143,2.00323 -3.08531,4.5748 -0.79967,1.38584 -0.36788,1.9154 -0.62474,1.29562 z m 16.37793,-6.90266 c -0.55954,-0.49183 -1.9943,-1.50712 -3.12643,-2.15239 l -2.8776,-0.8851 1.64502,-2.24845 c 0.75229,-1.02826 2.43865,-2.00741 3.09461,-2.37404 l 2.03182,-1.46621 3.34494,1.96411 c 1.43316,0.71468 2.70492,1.00274 2.70003,1.49849 -0.003,0.25993 -0.22328,0.35133 -0.9591,1.14226 -0.73581,0.79093 -2.17233,2.4183 -2.78752,3.23121 l -1.65379,2.53125 z m 54.53058,-3.79334 c -0.77024,-0.53049 -2.23719,-1.92831 -2.23662,-2.01327 0.002,-0.37746 0.38917,-3.9107 0.40724,-3.59765 0.0111,0.19271 1.80911,1.23584 2.58154,2.06179 1.41714,1.24499 2.57017,2.75171 3.61794,4.20499 -0.48831,0.65317 -1.29295,1.39877 -1.96689,1.83191 -1.11265,-1.24894 -1.11873,-1.61773 -2.40321,-2.48777 z m -66.22201,-1.14191 c -0.8676,-0.96007 -2.78865,-2.09042 -3.22521,-2.42174 -0.36781,-0.38793 0.60951,-0.71522 1.19393,-0.56568 1.85721,0.47523 2.44923,0.27888 7.6005,-2.52088 1.68603,-0.91637 1.84419,-0.7151 2.37223,-0.5652 0.59275,0.16827 1.64317,0.73804 1.20848,0.73804 -0.48915,0 -4.39575,3.82767 -5.3837,5.30714 l -1.60699,2.4177 z m 32.89187,0.29628 c -8.12459,-1.3234 -17.3805,-4.89069 -22.845,-8.39602 -2.73881,-1.75687 0.0294,-1.54524 2.14366,-0.53782 9.72318,4.63311 22.64215,5.70059 30.73671,2.53975 2.64206,-1.0317 4.79524,-0.9492 4.98996,-0.35735 0.06,0.18223 -0.76144,1.10357 -2.03861,1.51702 -2.53403,0.82031 -5.32613,1.38098 -7.69723,3.08749 -2.26784,1.63219 -3.78716,2.39164 -5.28949,2.14693 z m 28.12512,-15.21153 1.89494,-1.25848 c 4.07036,-2.70325 3.89681,-7.42759 -0.49885,-12.24847 -0.79612,-0.87312 -1.56493,-1.634614 -1.70847,-1.6922 -0.14355,-0.05759 -0.55798,-0.457655 -0.92097,-0.88904 -0.36298,-0.431385 -0.82545,-0.949816 -1.0277,-1.152068 -0.25991,-0.259906 -1.04263,-1.415132 -0.81724,-1.415132 0.1754,0 2.68678,0.978289 3.59512,1.909264 1.72433,1.767288 4.36277,4.025456 6.3783,4.589776 2.01138,0.56315 4.06965,7.04776 3.78248,12.54003 -0.21119,4.03901 -0.0998,4.65081 -1.74715,4.41994 -1.5812,-0.22159 -4.41516,0.47908 -5.10088,0.69416 -0.38346,0.12028 -1.58681,-1.43791 -1.58681,-1.43791 0.33422,-1.40608 -3.59749,-3.16016 -2.24277,-4.05987 z m -71.66924,2.11549 c -1.87745,-0.42256 -5.25801,-2.60197 -5.25801,-2.87483 0,-0.53232 2.78332,-0.61314 3.87841,-0.37958 1.58904,0.33891 6.31406,0.15676 6.72955,-0.25942 0.20523,-0.20557 0.3695,-1.45686 0.44286,-3.37344 0.0994,-2.59746 0.6097,-3.45051 0.97607,-3.43466 1.06973,0.0463 1.05375,-0.55172 1.62604,1.25332 0.32261,1.01757 2.27804,5.06775 2.69894,6.25093 l 0.35845,1.00765 -0.17025,0.39062 c -0.81853,1.878 -9.2421,1.87854 -11.28206,1.41941 z m -17.8472,-1.65278 c -3.19707,-0.50226 -7.49184,-1.72471 -9.89333,-4.1262 -3.19654,-3.19654 -0.72813,-3.86263 2.75522,-0.61496 3.22442,3.00625 11.17126,3.63136 16.77118,1.31925 2.54129,-1.04925 4.6633,-0.68714 3.34578,0.46965 -2.50996,2.20378 -8.98142,3.58024 -12.97885,2.95226 z"
         sodipodi:nodetypes="sssscsssssssscsssssasscssssscsscscsscssssssccsscsssscssssscssssssssssssssssssssssssscsssssssss"
         inkscape:label="red shadow" /><path
         id="path10084"
         style="display:inline;fill:#fbc63a;fill-opacity:1;stroke:none;stroke-width:0.296405;stroke-linecap:round;stroke-dasharray:none"
         d="m 608.48816,322.26224 c -7.71118,2.45253 -16.10573,4.0652 -22.46274,9.42048 -1.17839,1.2075 -3.12872,2.01907 -3.57125,3.76123 1.09398,3.77511 -0.82413,7.63493 -3.31903,10.41371 -6.37833,7.42638 -15.09312,12.33144 -24.09183,15.8558 -11.56374,4.37561 -23.94614,5.44587 -36.16476,6.2247 -9.12199,0.36682 -18.32318,0.73923 -27.45378,-0.0382 -2.25501,-0.0842 -4.34448,-1.00768 -6.52419,-1.40298 -1.44244,-0.0525 -1.51964,1.86231 -0.45682,2.47057 6.09114,4.88012 13.67815,7.41663 21.12768,9.39843 19.93877,5.06507 41.31368,2.7797 60.38374,-4.57548 13.85742,-5.48111 27.06303,-13.9436 35.76719,-26.26135 4.93459,-7.10857 8.00449,-15.60769 8.04918,-24.30563 -0.0713,-0.63889 -0.63884,-1.11923 -1.28339,-0.96128 z M 418.13807,98.134694 c -31.31628,0.336593 -64.47718,10.668366 -85.43519,34.983526 0.27606,3.48493 6.04184,1.48337 8.5387,2.34831 25.33879,0.4544 51.36404,2.40743 74.61081,13.51857 30.27519,13.36177 55.12425,35.86241 83.39287,52.65312 8.58814,5.23984 19.18629,5.95865 28.64874,2.85851 21.74706,-2.41209 44.93013,-3.57564 65.36947,5.29208 29.43847,11.92188 52.80462,37.73734 61.09445,68.53652 9.01899,31.09818 4.65848,65.0782 -7.75669,94.60936 -6.72271,15.94032 -17.66308,29.45502 -28.65386,42.61444 -5.60249,11.90755 -5.40229,25.62048 -8.75899,38.22766 -1.50043,4.64397 -1.85782,14.27878 -8.98549,13.15813 -6.76464,-5.67855 -1.36211,-15.12723 -0.58228,-22.21006 4.23566,-18.52777 5.10771,-37.71109 11.44911,-55.73909 2.87585,-11.92953 7.07897,-36.42997 5.47244,-48.74974 -1.81339,-3.9549 -6.38853,12.25759 -7.53161,14.52249 -20.07627,24.9127 -52.80033,36.14598 -84.13039,35.77062 -2.66,-0.18092 -9.24075,-0.24243 -6.46211,4.23729 5.81886,17.87126 7.20781,36.82126 3.88061,55.35438 -0.27049,3.41535 -1.11773,9.12596 3.43321,9.86907 15.21429,11.7159 25.50009,29.95674 27.4563,49.19932 1.80052,11.10899 1.00538,22.6754 2.4317,33.75738 18.42438,-2.12202 35.74797,-10.44672 52.08786,-18.97174 60.77643,-34.86302 96.73855,-105.78811 93.90895,-175.19458 -2.15308,-58.29737 -27.18651,-117.43818 -74.03049,-153.65091 -20.99157,-16.96132 -45.96306,-27.7918 -71.06405,-37.03588 -32.07079,-13.26158 -55.40548,-42.58867 -89.38505,-52.235 -15.75674,-5.25701 -32.38881,-7.883557 -48.99902,-7.723776 z"
         inkscape:label="yellow"
         transform="scale(0.26458333)" /><path
         id="path10123"
         style="display:inline;fill:#d89a24;fill-opacity:1;stroke:none;stroke-width:0.0414994px;stroke-linecap:butt;stroke-linejoin:miter;stroke-opacity:1"
         inkscape:label="yellow shadow"
         d="m 161.13404,93.863191 c 0,0 -1.3115,4.746778 -2.65906,6.757679 -2.1429,3.19774 -5.33773,5.57683 -8.33151,7.99651 -1.74889,1.41352 -4.30657,1.93136 -5.58827,3.77903 -0.88066,1.26954 -0.81517,2.98502 -1.08721,4.50597 -0.46666,2.60906 -0.92997,7.89682 -0.92997,7.89682 l -5.03869,-3.4659 1.40399,-7.18379 -1.88788,-10.6504 12.48964,-1.58896 9.85569,-6.095925 z m -17.38613,33.087659 c 4.68527,2.47499 5.3682,2.18647 8.14195,2.33425 3.28712,-0.022 13.62272,-1.42318 18.7422,-7.23777 3.34954,-3.80433 6.75238,-9.27231 9.08658,-13.85491 2.04405,-4.18571 3.2181,-8.742888 4.85297,-13.104714 0.35113,-0.936813 1.06446,-2.806263 1.06446,-2.806263 l -0.24317,7.381406 -1.83698,12.359551 -6.42797,10.94793 -4.2911,7.06626 c -5.30159,4.48625 -11.20855,8.72418 -17.24794,12.05695 l -9.13275,2.28238 0.0822,-8.30604 c -0.4647,-3.21729 -0.79019,-4.5298 -2.79047,-9.11903 z m -15.01365,5.57543 c -0.6186,0.31157 0.29064,1.55882 0.25599,2.09772 0.45313,2.6077 0.22086,5.28663 0.10198,7.90694 0.37564,1.08897 1.88938,0.74536 2.76509,1.03558 1.11019,0.11049 2.26503,0.44558 3.36055,0.23395 0.0305,-1.95967 -1.17665,-3.72628 -2.00231,-5.45253 -1.13137,-1.89158 -2.13083,-4.00041 -3.87865,-5.40611 -0.0745,-0.0434 -0.51444,-0.41995 -0.60265,-0.41555 z" /><path
         id="path10082"
         style="display:inline;fill:#309cd3;fill-opacity:1;stroke:none;stroke-width:0.296405;stroke-linecap:round;stroke-dasharray:none"
         d="m 546.3032,212.75308 c -31.4054,0.50404 -64.23518,15.71167 -79.69406,44.02402 -6.04449,9.63499 -6.68443,21.24592 -10.89298,31.56307 -5.51739,10.66383 -12.95428,21.37372 -12.03386,34.00019 -1.07684,14.8763 11.45001,26.77383 24.50436,31.4787 21.40724,7.82601 44.96702,7.05247 67.19684,3.73456 20.66788,-2.04789 39.34709,-14.82639 52.00024,-25.86257 7.20656,-5.43014 14.11931,-6.04966 21.60645,-8.65331 2.34665,-1.9193 0.55687,-6.77149 3.67378,-7.58051 5.53569,7.82462 4.66277,18.78237 2.04553,27.56754 3.41255,40.78291 -6.91278,44.54918 -9.89668,68.12691 2.1059,2.90639 5.33843,-5.74591 7.0409,-7.15293 19.40294,-20.24183 31.73762,-47.1072 35.32497,-74.8428 2.21503,-21.43698 0.94242,-43.88593 -8.78955,-63.4934 -15.3983,-33.81213 -52.84845,-54.20655 -89.40846,-52.95723 -0.89249,0.0159 -1.78499,0.0318 -2.67748,0.0478 z m -58.04339,45.2975 c 9.23586,0.0755 14.24241,10.14826 13.6023,18.22501 0.36672,10.48406 -4.24924,22.99592 -15.31672,25.9964 -8.08979,1.71924 -13.49026,-6.80033 -14.75957,-13.66916 -3.09756,-11.63867 2.28852,-27.16993 14.83916,-30.39625 0.54032,-0.0908 1.08668,-0.14717 1.63483,-0.156 z m 74.69567,2.05825 c 10.00457,0.34976 14.77795,11.59106 15.11455,20.2387 0.28253,9.63173 -2.69774,21.36977 -11.95316,26.06007 -6.3117,3.4675 -14.62015,0.38553 -17.16803,-6.31802 -4.87324,-12.07399 -3.79644,-28.18092 6.51701,-37.16478 2.12157,-1.68469 4.75349,-2.8077 7.48963,-2.81597 z m -97.3874,64.06374 c 5.74277,0.58088 7.57263,7.67333 5.37724,12.04707 -4.06881,-2.1734 -8.12261,-5.94574 -8.63893,-10.772 0.32572,-1.27142 2.25023,-1.34149 3.26169,-1.27507 z m 43.42549,5.02068 c 2.1072,0.11281 7.68049,1.62178 5.10663,4.48899 -3.19946,2.61426 -7.90735,5.48393 -12.04229,3.97166 -0.47483,-2.96103 2.00558,-6.52764 4.61157,-8.04518 0.72742,-0.32173 1.53197,-0.44743 2.32409,-0.41547 z M 507.14072,66.88576 c -22.43395,0.513127 -48.43253,8.133558 -67.50516,20.207452 -2.45276,1.760217 3.71924,1.700991 5.75316,1.561156 19.00505,3.755173 37.79422,9.670757 54.20557,20.209702 21.94443,12.75544 40.0518,32.08893 64.42911,40.57634 23.17724,8.23525 46.05676,18.29481 65.9751,32.85626 2.30626,1.06418 4.22653,5.98769 7.11322,4.45242 1.07388,-6.44216 -1.16629,-13.12323 -2.05659,-19.5382 -7.7387,-38.43207 -33.59717,-73.956954 -70.32462,-89.145027 -18.0901,-7.830629 -37.90053,-11.529158 -57.58979,-11.180103 z m -167.73952,75.1183 c -41.73508,-0.49564 -84.10847,24.88282 -107.39688,60.04871 -18.88701,27.87796 -18.87841,75.07862 -13.11915,107.97418 1.46098,2.67194 4.37313,-13.04031 3.86035,-15.01801 0.24438,-23.50951 11.55008,-46.50457 29.89682,-61.1177 21.31938,-17.56255 50.32485,-22.5891 77.18133,-19.75788 39.71838,4.28759 76.73407,24.3946 104.7172,52.5293 4.10642,3.32544 8.15391,13.37836 13.28901,15.10314 3.38706,-1.08115 0.18859,-10.7585 1.65237,-13.23022 4.82048,-15.2984 14.95291,-28.62124 26.60511,-39.35116 6.02578,-5.2828 13.61069,-10.37693 20.56052,-14.21474 0.87409,-2.80879 -4.47001,-2.9083 -5.9808,-4.67858 -31.41785,-21.07177 -60.81929,-47.23488 -97.89933,-57.90533 -15.17541,-4.66712 -37.5642,-10.51313 -53.36655,-10.38171 z"
         inkscape:label="blue"
         transform="scale(0.26458333)" /><path
         style="display:inline;fill:#2b88bb;fill-opacity:0.996078;stroke:none;stroke-width:0.0414994px;stroke-linecap:butt;stroke-linejoin:miter;stroke-opacity:1"
         d="m 163.51775,33.210658 c 0,0 0.81614,4.186486 0.57654,6.272376 -0.22435,1.953135 -1.85746,5.597806 -1.85746,5.597806 l 6.19782,4.379082 -0.14237,-7.267412 -3.56929,-6.834057 z"
         id="path10125"
         sodipodi:nodetypes="caccccc"
         inkscape:label="blue shadow" /><path
         id="path9830"
         style="display:inline;fill:#0c2b42;stroke-width:0.156848"
         inkscape:label="outline"
         d="m 135.41189,14.544332 c -7.90092,-0.09882 -15.75259,2.096937 -21.75164,6.609932 l -1.80713,1.359607 -2.89078,0.1757 c -10.386389,0.630826 -20.454908,5.66738 -25.855268,12.933578 -0.41535,0.558852 -1.084697,0.885812 -2.878377,1.405599 -23.97962,6.949024 -33.63752,36.964596 -18.92391,58.813464 0.69189,1.027431 0.746833,1.254785 0.510563,2.110465 -0.14562,0.527394 -0.281807,1.943207 -0.302307,3.146583 -0.0439,2.57922 -0.0357,2.575 -2.947624,1.51205 -1.01865,-0.37185 -2.037157,-0.73617 -2.263427,-0.80977 -0.30782,-0.10017 -0.487162,-0.81251 -0.713652,-2.82877 C 54.417378,88.548673 47.095164,81.642039 35.331694,79.864376 L 34.32297,79.71193 35.150826,78.867021 c 1.13693,-1.16059 2.624422,-4.27066 2.813782,-5.882845 0.39526,-3.365225 -0.775968,-5.546525 -4.836398,-9.01082 C 25.87,57.780753 21.250793,58.02989 15.168583,64.942289 7.7595932,73.362565 6.6453601,75.461616 7.3912801,79.595142 c 0.57621,3.193033 3.5035809,7.025927 5.3660809,7.025927 0.32464,0 0.397741,0.420899 0.392741,2.265495 -0.01,3.517806 1.28772,5.608456 5.10098,8.217586 l 1.206645,0.825273 0.148828,2.494937 c 0.75062,12.58134 14.384748,21.2226 25.778788,16.33854 l 1.251087,-0.5364 1.785421,0.82269 c 5.39965,2.48886 12.243922,2.81476 18.940962,0.90123 1.41295,-0.40372 0.406357,0.45089 -1.852083,1.57252 -9.8273,4.88063 -15.16932,16.44968 -12.01322,26.01598 2.29832,6.9663 7.063487,8.88781 7.604187,3.06648 0.44844,-4.82794 3.937263,-12.92288 3.950663,-9.16637 0.0334,9.37572 9.954872,18.49387 10.697022,9.83093 0.61303,-7.15577 4.296087,-14.36664 9.440767,-18.48259 l 0.960148,-0.76843 1.491899,0.51366 c 0.8205,0.28229 2.82917,0.76581 4.46381,1.07487 1.63463,0.30906 3.355152,0.64242 3.823022,0.74052 l 0.850594,0.17829 -0.808736,1.19062 c -4.81346,7.08584 -5.653043,19.84375 -1.305863,19.84375 0.57193,0 6.093527,-2.79 8.945707,-4.52013 1.94414,-1.17933 1.96511,-1.1458 0.63097,1.02319 -1.65345,2.68811 -3.3656,4.73532 -5.062224,6.05286 -3.02727,2.35089 -1.543756,3.87783 4.447274,4.57646 10.4193,1.21503 20.69381,-4.47653 23.99647,-13.29272 0.61801,-1.64973 0.36412,-1.59023 4.3279,-1.00821 4.35758,0.63984 4.00492,0.29069 4.00492,3.96978 0,4.29251 0.43166,5.31544 2.24224,5.31544 2.22946,0 5.61594,-3.44664 7.44089,-7.57318 0.5418,-1.22511 0.73067,-1.42287 1.36013,-1.42317 3.60661,-0.002 12.61904,-3.45307 17.79633,-6.81509 27.52874,-17.87663 32.12719,-59.931775 9.29349,-84.994811 l -2.04898,-2.248958 -0.32246,-3.704167 c -1.03604,-11.890835 -5.68123,-20.756699 -14.25907,-27.215909 -6.19584,-4.66553 -14.1458,-7.058878 -22.04672,-7.157703 z m 1.29139,3.329512 c 6.39014,0.32347 12.73589,2.294655 18.03818,5.862692 7.30311,4.914442 12.80613,14.529459 13.65085,23.851257 0.20217,2.231114 0.18714,2.259847 -0.70229,1.313098 -2.30612,-2.454753 -9.88723,-6.517064 -16.4176,-8.797396 -5.31292,-1.855214 -7.22745,-2.919955 -12.2685,-6.822839 -7.3889,-5.72063 -13.10289,-8.484184 -20.24373,-9.790617 l -2.44016,-0.446484 2.07894,-1.1467 c 5.47964,-3.022255 11.91417,-4.34648 18.30431,-4.023011 z m 2.05055,93.203616 -0.31367,-2.02985 c -0.17263,-1.11648 -0.56448,-2.80426 -0.87023,-3.75068 -0.30576,-0.94642 -0.55526,-1.75552 -0.55449,-1.79782 7.7e-4,-0.0423 1.51881,-0.084 3.37344,-0.092 13.40229,-0.0602 25.23506,-9.513811 22.72316,-18.154443 -0.89856,-3.090944 -1.81161,-2.659654 -2.04587,0.96635 -0.70383,10.894174 -19.12159,18.167563 -31.08751,12.27677 -1.49628,-0.736618 -2.44484,-1.635661 -1.23662,-1.172022 2.01751,0.774189 11.82339,0.364038 15.90963,-0.665592 5.31993,-1.340493 10.09246,-4.997748 9.77924,-7.494116 -0.0855,-0.681686 -0.10631,-0.673373 -1.93838,0.803051 -7.84256,6.320158 -26.02451,7.022863 -32.41146,1.252637 -3.49193,-3.15508 -3.49521,-8.447007 -0.008,-13.582117 0.82258,-1.211307 1.16377,-2.032195 1.35547,-3.26285 1.75958,-11.295828 12.32819,-17.717022 23.31331,-17.996317 h 5.2e-4 c 8.54395,-0.216929 17.33972,3.281674 22.4379,11.091313 8.16499,12.507507 3.75969,31.18705 -6.65346,40.492496 -1.0547,0.94251 -0.83225,4.04252 -1.23651,6.00779 l -0.59562,2.89556 c -0.14507,0.70527 -0.83557,3.93164 -1.05468,4.49633 -0.21912,0.5647 0.54781,2.00317 1.11714,2.34403 2.61298,1.0915 2.85047,-5.94938 3.54207,-8.42959 0.41014,-1.47085 0.22351,-4.43667 1.65387,-5.87154 5.59483,-5.61247 9.25696,-12.784164 10.38388,-22.519207 1.81657,-15.692686 -6.58788,-28.923312 -20.78633,-32.723068 -3.78186,-1.012092 -11.03107,-1.057729 -14.2875,-0.08992 -3.8356,1.139947 -6.36384,0.22294 -13.09687,-4.750614 -14.1799,-10.47444 -21.74219,-13.543795 -33.524053,-13.606405 l -5.080827,-0.02687 0.979786,-1.026294 c 5.28751,-5.535509 13.478414,-8.523286 22.150584,-8.607744 l 2.2e-4,1.2e-5 c 5.2033,-0.05067 10.57961,0.943681 15.6068,3.060279 3.21312,1.35282 5.94256,3.027504 10.4283,6.397542 5.81653,4.369824 8.71595,6.040955 12.86175,7.414018 19.65025,6.508046 32.44293,22.265004 35.47484,43.69449 3.44242,24.330941 -10.48885,48.265811 -32.31121,55.512891 -1.74365,0.57906 -3.76566,1.13173 -4.49326,1.22783 l -1.32292,0.17467 -0.015,-4.31447 c -0.0269,-7.5914 -2.68012,-13.88853 -7.23108,-17.16329 -1.48949,-1.0718 -1.61955,-1.24328 -1.49655,-1.96784 0.0741,-0.43656 0.63712,-4.34144 0.70968,-5.94135 M 92.035209,38.879281 c 11.000411,0.02326 19.069481,3.194647 30.992421,12.182202 2.04518,1.541662 4.76651,3.480763 6.0477,4.309297 l 2.32957,1.506368 -1.74511,0.904855 c -5.37972,2.789248 -11.13393,10.506513 -11.16263,14.970662 -0.007,1.052018 -0.33589,0.859602 -2.59726,-1.516703 -19.759108,-20.763446 -50.57791,-19.732655 -56.54435,1.891357 -0.26099,0.945886 -0.546803,3.148542 -0.635103,4.894792 -0.17704,3.499116 -0.309076,3.270522 -0.840776,-1.455208 C 55.506411,55.473738 70.586689,38.833931 92.035209,38.879281 Z M 24.132894,62.351233 c 2.07374,-0.03042 4.176255,1.102596 6.817155,3.199288 4.58188,3.637694 5.623669,6.288779 3.737239,9.508463 -1.23077,2.100606 -3.044515,1.124071 -2.267045,-1.220597 0.81481,-2.457306 -0.484471,-4.429969 -4.909261,-7.453292 -3.64455,-2.490212 -4.688929,-2.11277 -9.504329,3.437 -5.69862,6.56767 -6.187762,7.737425 -4.543392,10.863419 0.77684,1.476805 0.789333,1.554947 0.384473,2.408122 -0.50822,1.070983 -0.427091,1.06841 -1.592151,0.04547 -2.9196503,-2.563483 -3.1712802,-6.652865 -0.6165,-10.011792 5.66065,-7.442407 9.037591,-10.725382 12.493811,-10.776086 z m 0.295072,5.446179 c 0.82201,-0.02431 1.601753,0.500011 2.729033,1.335836 3.24896,2.40896 3.472238,2.949437 2.250508,5.440495 l -0.715201,1.458309 0.5333,0.730704 c 0.29326,0.40172 1.478301,1.231894 2.633431,1.845366 l 2.10013,1.115694 -1.852083,0.01447 c -7.02868,0.05537 -7.626241,1.448245 -3.569291,8.316805 1.59209,2.695475 1.626383,3.10146 0.333313,3.980119 -1.28541,0.873462 -1.43482,0.857114 -3.77548,-0.414445 -3.99816,-2.171988 -4.270996,-2.539448 -3.416846,-4.600236 l 0.605131,-1.460376 -0.782381,-1.11311 c -0.57027,-0.811406 -1.344203,-1.403144 -2.855123,-2.182813 -3.53299,-1.823113 -4.231911,-4.041616 -2.104781,-6.679179 4.59315,-5.695352 6.31703,-7.741231 7.88634,-7.787638 z m 104.833914,0.307475 c -2.07003,-0.004 -4.32065,1.903032 -4.82761,5.724715 -0.31697,2.38941 1.00575,5.498558 2.63704,6.198588 2.64109,1.133361 5.70076,-2.054134 5.93401,-6.182051 0.21597,-3.822243 -1.67342,-5.737264 -3.74344,-5.741252 z m 19.82463,0.513664 c -1.45082,-0.0321 -2.98281,0.979505 -4.02715,3.241145 -1.5083,3.266393 -0.74283,8.143875 1.46658,9.345683 3.14039,1.708209 6.62802,-1.66154 6.62802,-6.403743 0,-3.860259 -1.94703,-6.136169 -4.06745,-6.183085 z m -20.05459,1.862935 c 1.74293,0 2.29736,2.687575 0.65784,3.399792 -0.61462,0.266996 -1.06113,0.385298 -1.67122,-0.224792 -1.0856,-1.085598 -0.41859,-3.175 1.01338,-3.175 z m -29.413194,0.303341 c 0.645644,0.02019 1.313714,0.140018 1.996264,0.372587 6.41888,2.187133 6.67959,14.247814 0.37413,17.300236 -2.864566,1.386714 -6.567879,0.341818 -8.427389,-2.377633 -4.36577,-6.384753 -0.184255,-15.490357 6.056995,-15.29519 z m 49.347894,0.225826 c 1.53835,0 1.62432,2.463055 0.84439,3.155879 -0.82895,0.736371 -1.59281,0.682861 -2.26313,0.01254 -1.12423,-1.124229 -0.0965,-3.168423 1.41874,-3.168421 z M 76.632015,71.47109 c 7.71108,-0.06603 9.54367,13.39821 2.29495,16.860986 -4.80986,2.297712 -9.249048,-1.507886 -9.249048,-7.928715 0,-5.436109 2.693468,-8.895781 6.954098,-8.932271 z m -1.483114,3.640604 c -4.929104,2.7e-5 -6.198237,10.314814 -1.516703,12.327413 0.299,0.12854 0.995009,0.186545 1.546159,0.128675 5.527524,-0.580347 5.499445,-12.45606 -0.02946,-12.456088 z m 22.405868,0.03514 c -1.31714,0.04859 -2.649665,0.854962 -3.535185,2.478402 -1.63379,2.99529 -0.88697,7.888045 1.44384,9.458854 3.71152,2.501323 7.683466,-3.013168 6.116426,-8.491988 -0.66292,-2.317736 -2.331611,-3.50774 -4.025081,-3.445268 z m -22.803776,1.949235 c 1.010365,0 1.906445,1.849579 0.925525,2.737301 -0.98092,0.887722 -2.426726,-0.01327 -2.426726,-1.12758 0,-1.114308 0.490836,-1.609721 1.501201,-1.609721 z m 22.359875,0.495577 c 1.929561,0 1.286174,2.050871 1.250571,2.1146 -0.70447,1.260904 -2.622062,0.873579 -2.622062,-0.529684 0,-0.999337 0.664042,-1.597098 1.371491,-1.584916 z M 86.465007,82.11075 c 0.37271,-0.02193 0.916457,0.09881 1.749247,0.308509 1.08049,0.27206 1.175122,0.363355 1.175122,1.131713 0,1.34655 1.617811,4.382752 3.023071,5.673556 5.36359,4.926729 13.458103,2.880213 15.784053,-3.990454 0.25904,-0.765187 0.5437,-1.381642 0.632,-1.369942 0.0884,0.0117 1.38735,0.296458 2.88716,0.633036 l 2.72697,0.612366 0.28008,1.810225 c 0.65667,4.242448 3.54372,7.595621 7.95766,9.243364 1.15839,0.432433 1.7211,0.846825 2.46031,1.811259 1.12402,1.46648 3.41762,3.060398 5.65392,3.929478 0.87434,0.33979 1.83725,0.71934 2.13992,0.84336 0.5678,0.23266 1.26331,1.86067 2.09703,4.90822 0.57,2.08354 0.8409,9.08641 0.41238,10.66344 l -0.30954,1.13894 -1.24282,-0.2129 c -1.51643,-0.25921 -3.35297,-0.2733 -4.41782,-0.0341 -0.7623,0.17122 -0.82473,0.11357 -1.58388,-1.45521 -4.72458,-9.76332 -17.93826,-5.77622 -16.13959,4.86999 0.15307,0.90604 0.11139,1.03715 -0.33072,1.03715 -1.72414,0 -7.50988,2.6839 -10.23969,4.75009 -1.937489,1.46648 -2.048927,1.48662 -5.139737,0.92243 -17.95441,-3.27736 -30.173771,-13.37339 -31.363461,-25.91315 -0.38285,-4.035364 0.4626,-6.842882 3.31401,-11.006046 1.87563,-2.7385 2.052566,-2.863118 3.066996,-2.154907 5.51805,3.852385 12.961221,0.442974 14.416691,-6.603731 0.22254,-1.077456 0.369448,-1.510118 0.990638,-1.546676 z m -55.918034,0.603581 c 1.84414,-0.03438 5.315985,0.271527 7.277075,0.711068 8.77006,1.965646 14.788244,8.956195 14.788244,17.177761 0,6.63613 -4.459585,12.69017 -10.348205,14.04772 -8.4055,1.93777 -17.152248,-3.41936 -19.301148,-11.8215 -0.78928,-3.086055 -0.851384,-3.028696 1.846916,-1.71462 3.74387,1.82326 10.03486,2.75667 12.94753,1.92133 0.73264,-0.21012 1.010027,-0.15966 1.621607,0.29249 2.07953,1.53747 2.705189,-0.49234 0.805119,-2.61173 -0.7534,-0.840366 -2.305326,-3.029505 -3.448886,-4.86482 -1.14355,-1.835315 -2.727895,-4.342772 -3.520715,-5.571752 -2.808,-4.35275 -4.253745,-7.133037 -3.852995,-7.410401 0.13673,-0.09463 0.570748,-0.144088 1.185458,-0.155546 z m -13.037447,2.054655 c 0.98151,0 1.494669,1.009186 1.092439,2.149223 -0.87405,2.477333 -0.277961,3.501186 3.520199,6.047176 3.2618,2.186456 5.966517,2.750317 7.853267,1.637109 1.15478,-0.681338 1.622015,-0.720409 1.839165,-0.154512 0.40884,1.065408 -0.20011,2.025858 -1.95647,3.087667 -3.99391,2.414518 -14.050813,-3.628699 -14.090613,-8.467184 -0.0135,-1.636135 1.065483,-4.299479 1.742013,-4.299479 z m 105.494334,0.79375 c -1.25049,0 -1.14208,1.313582 0.22118,2.676839 1.18236,1.182366 1.49453,1.260976 1.71669,0.432015 0.4531,-1.690751 -0.43085,-3.108854 -1.93787,-3.108854 z m 11.58172,1.390613 c -0.40975,10e-4 -0.79927,0.0903 -1.06608,0.293005 -0.54965,0.417596 -1.0752,1.715361 -0.88987,2.198316 0.29569,0.770541 3.85558,-0.595969 3.85558,-1.480013 0,-0.58813 -0.99817,-1.013508 -1.89963,-1.011308 z m -39.81307,9.281604 c -0.47784,0.0023 -0.644473,0.508785 -0.510563,1.518253 l 0.168982,1.275375 -1.396298,1.053679 c -3.9619,2.98997 -9.272354,3.25465 -12.882934,0.64234 -2.07605,-1.502045 -2.395024,-1.604857 -2.930054,-0.944127 -1.35302,1.670917 2.087099,5.181817 6.148979,6.275587 4.38938,1.18196 9.173567,-0.18969 12.032857,-3.4494 1.24225,-1.41623 1.290396,-1.44235 2.129586,-1.1498 2.29254,0.79917 2.339748,-1.12922 0.0801,-3.284558 -1.35741,-1.294757 -2.299093,-1.939979 -2.840653,-1.937349 z m -60.602503,1.330151 c 0.0607,-0.0025 0.109007,0.01405 0.141077,0.05116 1.42797,1.652001 1.954811,2.564356 1.608171,2.783806 -0.35552,0.22508 -1.777426,0.27797 -2.621546,0.0977 -0.21828,-0.0466 -0.980177,-0.16208 -1.693437,-0.25631 l -1.297078,-0.17105 1.164787,-0.657843 c 0.6405,-0.361932 1.492801,-0.970259 1.893941,-1.351856 0.32528,-0.309429 0.621875,-0.488214 0.804085,-0.495577 z m 21.112407,7.355626 c 0.30079,-0.0107 0.912727,0.18528 2.153357,0.60099 1.05809,0.35454 2.518713,0.72349 3.246313,0.81959 l 1.322917,0.17467 0.606681,2.15749 c 0.33343,1.18647 1.139629,3.10069 1.792139,4.254 1.34638,2.37972 1.356419,2.35469 -1.081071,2.77916 -4.50843,0.78511 -9.327102,0.42616 -12.252482,-0.91312 l -1.438155,-0.65836 1.213362,-1.29708 c 1.99707,-2.13503 4.148067,-5.98021 4.148067,-7.41453 0,-0.3227 0.0235,-0.49334 0.288872,-0.50281 z m 63.981626,10.37042 c 4.40219,-0.0453 8.16114,5.24211 6.91017,10.45673 -0.35627,1.48513 -0.50278,1.59382 -1.16324,0.86403 -1.24963,-1.38083 -5.21234,-2.90046 -8.16642,-3.13159 l -2.04536,-0.15968 -0.15192,-0.95343 c -0.0834,-0.52433 -0.19862,-1.18239 -0.25632,-1.46245 -0.41702,-2.02205 1.41256,-4.86364 3.49126,-5.4224 0.46433,-0.12482 0.92643,-0.18652 1.38183,-0.19121 z m -49.299318,5.85701 c 0.74618,-0.0296 1.303206,0.34856 2.325956,1.10794 2.01324,1.49482 1.979991,1.42293 0.942061,2.03605 -1.44032,0.85082 -4.12845,3.56444 -5.27668,5.32681 -1.33845,2.05434 -1.125888,2.04573 -2.862358,0.11989 -0.77516,-0.85969 -1.931509,-1.89374 -2.569869,-2.29805 -0.63836,-0.4043 -1.165471,-0.87479 -1.170471,-1.04541 -0.0192,-0.61526 2.817866,-2.76946 5.149556,-3.90984 1.78013,-0.87062 2.715625,-1.30777 3.461805,-1.33739 z m 61.962108,0.80099 c 1.96289,0.0341 4.6999,1.27117 6.9634,3.53466 2.25694,2.25694 2.25608,2.33234 -0.0362,3.46181 -1.02389,0.5045 -2.68734,1.5463 -3.69642,2.3151 -2.10295,1.6022 -1.83905,1.50632 -2.37711,0.86765 -0.21317,-0.25302 -1.17233,-1.19908 -2.25826,-2.01642 -1.08594,-0.81734 -1.97316,-1.50162 -1.97146,-1.52032 0.002,-0.0187 0.17894,-0.68895 0.39377,-1.48931 0.21482,-0.80036 0.39208,-2.13564 0.39378,-2.96726 0.003,-1.51151 1.06178,-2.21246 2.58847,-2.18591 z m -55.0385,3.73362 3.090767,1.526 3.090251,1.52601 -2.102714,2.19056 c -1.15663,1.20478 -2.383785,2.6817 -2.726965,3.28249 -0.75556,1.32274 -0.575023,1.33109 -2.344043,-0.10387 -0.80036,-0.64923 -2.258886,-1.604 -3.241146,-2.12132 -0.98227,-0.51733 -1.78483,-1.02327 -1.78387,-1.12448 0.008,-0.84004 2.850985,-3.49549 4.914945,-4.59042 z m 38.25606,0.68988 c 17.1066,-0.69473 14.36369,27.30186 -4.11396,31.01206 -1.87919,0.37733 -5.43179,0.50267 -6.6921,0.23616 -1.94555,-0.41142 -1.8924,-0.24876 -0.5488,-1.68517 4.18385,-4.47287 8.10121,-14.71793 6.12314,-16.01401 -0.92333,-0.605 -1.59915,-0.14383 -2.12958,1.45314 -0.63224,1.9035 -2.74972,3.45283 -10.367331,7.58559 -2.34099,1.27018 -2.337741,1.27337 -2.334741,-2.49959 0.009,-10.00591 7.766752,-18.43349 18.345652,-19.92954 0.59327,-0.0839 1.1659,-0.13623 1.71772,-0.15864 z m -55.720627,2.21123 1.290877,1.09038 c 0.7099,0.59979 1.935002,1.74861 2.722832,2.55281 l 1.43247,1.46193 -0.91829,1.01647 c -2.69494,2.98298 -5.78311,9.535 -5.78311,12.27005 0,1.36275 -1.454541,-1.01303 -2.123901,-3.46903 -1.06237,-3.89805 0.420114,-11.33942 2.843754,-14.27458 z m 82.732417,1.77095 c 0.0335,-2e-4 0.058,0.007 0.0724,0.0212 0.33463,0.33463 1.41929,4.02082 1.68568,5.72833 0.91393,5.85818 -0.47687,11.50265 -3.69848,15.00891 -1.17954,1.28375 -1.26542,1.13911 -1.41697,-2.38125 -0.19276,-4.47754 -1.42484,-9.31997 -3.15433,-12.39718 l -0.57981,-1.03146 0.7767,-0.81959 c 1.1622,-1.22661 5.6333,-4.12488 6.31486,-4.12895 z m -13.42192,2.17145 0.72916,0.66146 c 2.1698,1.96795 6.24115,9.68862 5.49992,10.42985 -0.18238,0.18238 -0.0787,0.19105 -3.21169,-0.2651 -3.00902,-0.4381 -2.73495,-0.12141 -2.36523,-2.73575 0.29502,-2.08617 0.0935,-5.18582 -0.48266,-7.429 z m -59.302839,1.45521 c 1.23379,0 5.935038,3.23949 5.935038,4.08967 0,0.18742 -0.235245,0.87297 -0.522965,1.52342 -0.74193,1.67725 -1.780455,5.6966 -1.998845,7.73596 -0.10202,0.95265 -0.267399,1.7322 -0.367419,1.7322 -0.86903,0 -3.217506,-3.8276 -3.838526,-6.25595 -0.80057,-3.13043 -0.289023,-8.8253 0.792717,-8.8253 z M 6.89846,104.99458 c -1.01652,-0.712 -0.68544,-1.85859 1.33263,-4.61521 1.69946,-2.321392 2.60549,-3.174995 3.36998,-3.174995 1.80476,0 1.74915,1.417899 -0.16733,4.266055 -2.55642,3.7992 -3.30837,4.38351 -4.53528,3.52415 z M 1.02565,94.830025 C -0.02903,93.775339 0.36763,92.995958 2.60625,91.724429 7.24578,89.089188 9.01907,88.750109 9.59511,90.388056 9.95645,91.41552 9.41227,91.8978 5.94856,93.619806 2.26717,95.450032 1.7683,95.572672 1.02565,94.830025 Z"
         sodipodi:nodetypes="scccsssssssssccssssscccscccsssssscccsscssssssssssscssccssssssssscssccsscssssssscssssssssscsssssscccssssssssccsscssccscsscssssssssssssssssscccccssscccssssssssssssssssssssssssssssssssssssssssszzzzssssssssssscccssssssccsssssssssssssssssssssssssssssssssssssssssssccsssssssssscsscccssssssccsssccsssssccccsssssssscsssssssscscssccccssssssssssssccscccccssscsscssscccscccssscsssssssssssssssss" /></g></g></svg>
